0
SECTION
2
HEADER
9
$INSUNITS
70
4
9
$ACADVER
1
AC1014
9
$HANDSEED
5
FFFF
0
ENDSEC
0
SECTION
2
TABLES
0
TABLE
2
VPORT
5
8
100
AcDbSymbolTable
0
ENDTAB
0
TABLE
2
LTYPE
5
5
100
AcDbSymbolTable
0
LTYPE
5
14
100
AcDbSymbolTableRecord
100
AcDbLinetypeTableRecord
2
BYBLOCK
70
0
0
LTYPE
5
15
100
AcDbSymbolTableRecord
100
AcDbLinetypeTableRecord
2
BYLAYER
70
0
0
LTYPE
5
16
100
AcDbSymbolTableRecord
100
AcDbLinetypeTableRecord
2
DASHED
70
0
3
Dashed __ __ __ __ __ __ __ __ __ __ __ __ __ _
72
65
73
2
40
0.75
49
0.5
74
0
49
-0.25
74
0
0
ENDTAB
0
TABLE
2
LAYER
5
2
100
AcDbSymbolTable
70
2
0
LAYER
5
50
100
AcDbSymbolTableRecord
100
AcDbLayerTableRecord
2
0
70
0
62
7
6
CONTINUOUS
0
ENDTAB
0
TABLE
2
STYLE
5
3
100
AcDbSymbolTable
70
1
0
STYLE
5
11
100
AcDbSymbolTableRecord
100
AcDbTextStyleTableRecord
2
STANDARD
70
0
0
ENDTAB
0
TABLE
2
VIEW
5
6
100
AcDbSymbolTable
70
0
0
ENDTAB
0
TABLE
2
UCS
5
7
100
AcDbSymbolTable
70
0
0
ENDTAB
0
TABLE
2
APPID
5
9
100
AcDbSymbolTable
70
2
0
APPID
5
12
100
AcDbSymbolTableRecord
100
AcDbRegAppTableRecord
2
ACAD
70
0
0
ENDTAB
0
TABLE
2
DIMSTYLE
5
A
100
AcDbSymbolTable
70
1
0
ENDTAB
0
TABLE
2
BLOCK_RECORD
5
1
100
AcDbSymbolTable
70
1
0
BLOCK_RECORD
5
1F
100
AcDbSymbolTableRecord
100
AcDbBlockTableRecord
2
*MODEL_SPACE
0
BLOCK_RECORD
5
1B
100
AcDbSymbolTableRecord
100
AcDbBlockTableRecord
2
*PAPER_SPACE
0
ENDTAB
0
ENDSEC
0
SECTION
2
BLOCKS
0
BLOCK
5
20
100
AcDbEntity
100
AcDbBlockBegin
2
*MODEL_SPACE
0
ENDBLK
5
21
100
AcDbEntity
100
AcDbBlockEnd
0
BLOCK
5
1C
100
AcDbEntity
100
AcDbBlockBegin
2
*PAPER_SPACE
0
ENDBLK
5
1D
100
AcDbEntity
100
AcDbBlockEnd
0
ENDSEC
0
SECTION
2
ENTITIES
0
LWPOLYLINE
5
100
100
AcDbEntity
8
0
100
AcDbPolyline
90
8
70
1
43
0.0
10
-172.8448189045364
20
101.80264353700836
42
0.41421356237307272
10
-173.54481890453641
20
101.10264353700835
10
-173.54481890453641
20
88.102643537008419
42
0.41421356237309503
10
-172.8448189045364
20
87.402643537008402
10
-159.84481890453642
20
87.40264353700843
42
0.41421356237310253
10
-159.14481890453644
20
88.102643537008433
10
-159.14481890453644
20
101.10264353700836
42
0.41421356237310253
10
-159.84481890453642
20
101.80264353700836
0
CIRCLE
5
101
100
AcDbEntity
8
0
100
AcDbCircle
10
-128.41262290989715
20
22.94567467806036
30
0
40
1.2500000000000044
210
0
220
0
230
1
0
CIRCLE
5
102
100
AcDbEntity
8
0
100
AcDbCircle
10
-283.01106503862991
20
151.96034690254177
30
0
40
1.2500000000000044
210
0
220
0
230
1
0
CIRCLE
5
103
100
AcDbEntity
8
0
100
AcDbCircle
10
-128.18248710521024
20
132.84480721827367
30
0
40
1.2500000000000044
210
0
220
0
230
1
0
CIRCLE
5
104
100
AcDbEntity
8
0
100
AcDbCircle
10
-168.79390033136508
20
18.254229913687197
30
0
40
1.2500000000000044
210
0
220
0
230
1
0
CIRCLE
5
105
100
AcDbEntity
8
0
100
AcDbCircle
10
-268.69044549122611
20
18.411641718171335
30
0
40
1.2500000000000044
210
0
220
0
230
1
0
CIRCLE
5
106
100
AcDbEntity
8
0
100
AcDbCircle
10
-199.67863024407245
20
151.80666512513085
30
0
40
1.2500000000000044
210
0
220
0
230
1
0
LWPOLYLINE
5
107
100
AcDbEntity
8
0
100
AcDbPolyline
90
14
70
1
43
0.0
10
-280.40739575719692
20
106.27620763259327
10
-280.40739575719692
20
87.226207632593258
10
-275.64489575719693
20
87.226207632593258
10
-275.64489575719693
20
67.707207632593281
10
-270.88239575719695
20
67.707207632593281
10
-270.88239575719695
20
16.463457632593268
10
-166.83239575719688
20
16.463457632593265
10
-166.83239575719688
20
21.225957632593264
10
-126.35534322821857
20
21.225957632593257
10
-126.24694427808728
20
134.80095763259325
10
-197.78864575719695
20
134.80095763259325
10
-197.78864575719695
20
153.85095763259332
10
-285.16989575719697
20
153.85095763259332
10
-285.16989575719697
20
106.27620763259327
0
LWPOLYLINE
5
108
100
AcDbEntity
8
0
100
AcDbPolyline
90
8
70
1
43
0.0
10
-183.15964670465667
20
101.31085686150686
42
0.41421356237309503
10
-183.85964670465668
20
102.01085686150688
10
-196.85964670465665
20
102.01085686150688
42
0.41421356237309503
10
-197.55964670465664
20
101.31085686150686
10
-197.55964670465664
20
88.31085686150692
42
0.41421356237310253
10
-196.85964670465665
20
87.610856861506917
10
-183.85964670465668
20
87.610856861506932
42
0.41421356237310991
10
-183.15964670465672
20
88.310856861506892
0
LWPOLYLINE
5
109
100
AcDbEntity
8
0
100
AcDbPolyline
90
8
70
1
43
0.0
10
-202.20964670465673
20
101.31085686150686
42
0.41421356237309503
10
-202.90964670465672
20
102.01085686150688
10
-215.90964670465669
20
102.01085686150688
42
0.41421356237309503
10
-216.60964670465671
20
101.31085686150686
10
-216.60964670465671
20
88.310856861506892
42
0.41421356237309503
10
-215.90964670465669
20
87.610856861506903
10
-202.90964670465672
20
87.610856861506917
42
0.4142135623730876
10
-202.20964670465673
20
88.310856861506892
0
LWPOLYLINE
5
110
100
AcDbEntity
8
0
100
AcDbPolyline
90
8
70
1
43
0.0
10
-161.72839670465652
20
120.36085686150678
42
0.41421356237309503
10
-162.42839670465654
20
121.06085686150678
10
-175.42839670465651
20
121.06085686150678
42
0.41421356237309503
10
-176.1283967046565
20
120.36085686150678
10
-176.1283967046565
20
107.36085686150682
42
0.41421356237310253
10
-175.42839670465651
20
106.66085686150682
10
-162.42839670465654
20
106.66085686150683
42
0.41421356237309503
10
-161.72839670465652
20
107.36085686150682
0
LWPOLYLINE
5
111
100
AcDbEntity
8
0
100
AcDbPolyline
90
8
70
1
43
0.0
10
-187.9221467046566
20
120.36085686150678
42
0.41421356237309503
10
-188.62214670465661
20
121.06085686150678
10
-201.62214670465659
20
121.06085686150678
42
0.41421356237309503
10
-202.32214670465657
20
120.36085686150678
10
-202.32214670465657
20
107.36085686150682
42
0.41421356237310253
10
-201.62214670465659
20
106.66085686150682
10
-188.62214670465661
20
106.66085686150683
42
0.41421356237309503
10
-187.92214670465665
20
107.36085686150682
0
LWPOLYLINE
5
112
100
AcDbEntity
8
0
100
AcDbPolyline
90
8
70
1
43
0.0
10
-206.97214670465672
20
120.36085686150673
42
0.41421356237309503
10
-207.67214670465674
20
121.06085686150675
10
-220.67214670465671
20
121.06085686150675
42
0.41421356237309503
10
-221.3721467046567
20
120.36085686150673
10
-221.3721467046567
20
107.36085686150676
42
0.41421356237309503
10
-220.67214670465671
20
106.66085686150677
10
-207.67214670465674
20
106.66085686150679
42
0.4142135623730876
10
-206.97214670465672
20
107.36085686150676
0
LWPOLYLINE
5
113
100
AcDbEntity
8
0
100
AcDbPolyline
90
8
70
1
43
0.0
10
-211.73464670465737
20
139.41085686150669
42
0.41421356237309503
10
-212.43464670465738
20
140.11085686150668
10
-225.43464670465733
20
140.11085686150668
42
0.41421356237312473
10
-226.13464670465734
20
139.41085686150669
10
-226.13464670465734
20
126.41085686150672
42
0.41421356237312473
10
-225.43464670465733
20
125.7108568615067
10
-212.43464670465738
20
125.71085686150673
42
0.4142135623730876
10
-211.73464670465737
20
126.41085686150672
0
LWPOLYLINE
5
114
100
AcDbEntity
8
0
100
AcDbPolyline
90
8
70
1
43
0.0
10
-226.02214670465679
20
120.36085686150687
42
0.41421356237309503
10
-226.72214670465678
20
121.06085686150689
10
-239.72214670465675
20
121.06085686150689
42
0.41421356237309503
10
-240.42214670465677
20
120.36085686150687
10
-240.42214670465677
20
107.36085686150693
42
0.41421356237310253
10
-239.72214670465675
20
106.66085686150693
10
-226.72214670465678
20
106.66085686150694
42
0.41421356237309503
10
-226.02214670465682
20
107.36085686150693
0
LWPOLYLINE
5
115
100
AcDbEntity
8
0
100
AcDbPolyline
90
8
70
1
43
0.0
10
-245.0721467046566
20
120.36085686150682
42
0.41421356237309503
10
-245.77214670465662
20
121.06085686150681
10
-258.77214670465656
20
121.06085686150681
42
0.41421356237309503
10
-259.47214670465661
20
120.36085686150682
10
-259.47214670465661
20
107.36085686150685
42
0.41421356237309503
10
-258.77214670465656
20
106.66085686150683
10
-245.77214670465662
20
106.66085686150686
42
0.4142135623730876
10
-245.0721467046566
20
107.36085686150685
0
LWPOLYLINE
5
116
100
AcDbEntity
8
0
100
AcDbPolyline
90
8
70
1
43
0.0
10
-256.97764670465722
20
139.41085686150674
42
0.41421356237309503
10
-257.67764670465721
20
140.11085686150676
10
-270.67764670465715
20
140.11085686150676
42
0.41421356237312473
10
-271.3776467046572
20
139.41085686150674
10
-271.3776467046572
20
126.41085686150677
42
0.41421356237312473
10
-270.67764670465715
20
125.71085686150678
10
-257.67764670465721
20
125.7108568615068
42
0.4142135623730876
10
-256.97764670465722
20
126.41085686150677
0
LWPOLYLINE
5
117
100
AcDbEntity
8
0
100
AcDbPolyline
90
8
70
1
43
0.0
10
-264.12214670465659
20
120.36085686150685
42
0.41421356237309503
10
-264.82214670465657
20
121.06085686150685
10
-277.82214670465657
20
121.06085686150685
42
0.41421356237309503
10
-278.52214670465656
20
120.36085686150685
10
-278.52214670465656
20
107.36085686150689
42
0.41421356237310253
10
-277.82214670465657
20
106.66085686150689
10
-264.82214670465657
20
106.66085686150691
42
0.41421356237309503
10
-264.12214670465664
20
107.36085686150689
0
LWPOLYLINE
5
118
100
AcDbEntity
8
0
100
AcDbPolyline
90
8
70
1
43
0.0
10
-230.78464670465738
20
139.41085686150683
42
0.41421356237309503
10
-231.48464670465739
20
140.11085686150682
10
-244.48464670465734
20
140.11085686150682
42
0.41421356237312473
10
-245.18464670465735
20
139.41085686150683
10
-245.18464670465735
20
126.41085686150687
42
0.41421356237313223
10
-244.48464670465734
20
125.71085686150687
10
-231.48464670465739
20
125.71085686150688
42
0.41421356237309503
10
-230.78464670465738
20
126.41085686150687
0
LWPOLYLINE
5
119
100
AcDbEntity
8
0
100
AcDbPolyline
90
8
70
1
43
0.0
10
-173.63464670465623
20
44.160856861506659
42
0.41421356237309132
10
-174.33464670465625
20
44.860856861506655
10
-187.33464670465622
20
44.860856861506655
42
0.41421356237309132
10
-188.03464670465621
20
44.160856861506659
10
-188.03464670465621
20
31.160856861506669
42
0.41421356237311174
10
-187.33464670465625
20
30.460856861506667
10
-174.33464670465622
20
30.460856861506677
42
0.41421356237308948
10
-173.63464670465621
20
31.160856861506669
0
LWPOLYLINE
5
120
100
AcDbEntity
8
0
100
AcDbPolyline
90
8
70
1
43
0.0
10
-154.34792766041525
20
44.001405880329216
42
0.41421356237309132
10
-155.04792766041521
20
44.701405880329204
10
-168.04792766041521
20
44.701405880329219
42
0.4142135623730876
10
-168.74792766041523
20
44.001405880329223
10
-168.74792766041523
20
31.001405880329219
42
0.41421356237309132
10
-168.04792766041521
20
30.301405880329213
10
-155.04792766041524
20
30.30140588032922
42
0.41421356237310253
10
-154.34792766041525
20
31.001405880329223
0
LWPOLYLINE
5
121
100
AcDbEntity
8
0
100
AcDbPolyline
90
8
70
1
43
0.0
10
-211.73464670465626
20
63.210856861506727
42
0.41421356237309132
10
-212.43464670465627
20
63.910856861506716
10
-225.43464670465625
20
63.910856861506716
42
0.41421356237309132
10
-226.13464670465623
20
63.210856861506727
10
-226.13464670465623
20
50.210856861506734
42
0.41421356237311363
10
-225.43464670465627
20
49.510856861506731
10
-212.43464670465625
20
49.510856861506738
42
0.41421356237309132
10
-211.73464670465623
20
50.210856861506734
0
LWPOLYLINE
5
122
100
AcDbEntity
8
0
100
AcDbPolyline
90
8
70
1
43
0.0
10
-249.83464670465628
20
63.210856861506777
42
0.41421356237309132
10
-250.5346467046563
20
63.910856861506772
10
-263.53464670465627
20
63.910856861506772
42
0.41421356237309132
10
-264.23464670465626
20
63.210856861506777
10
-264.23464670465626
20
50.210856861506784
42
0.41421356237311363
10
-263.53464670465632
20
49.510856861506781
10
-250.53464670465627
20
49.510856861506795
42
0.41421356237309132
10
-249.83464670465625
20
50.210856861506784
0
LWPOLYLINE
5
123
100
AcDbEntity
8
0
100
AcDbPolyline
90
8
70
1
43
0.0
10
-230.78464670465627
20
44.160856861506687
42
0.41421356237309503
10
-231.48464670465629
20
44.86085686150669
10
-244.48464670465626
20
44.86085686150669
42
0.41421356237309503
10
-245.18464670465625
20
44.160856861506687
10
-245.18464670465625
20
31.160856861506691
42
0.41421356237310991
10
-244.48464670465629
20
30.460856861506684
10
-231.48464670465626
20
30.460856861506691
42
0.41421356237309132
10
-230.78464670465624
20
31.160856861506694
0
LWPOLYLINE
5
124
100
AcDbEntity
8
0
100
AcDbPolyline
90
8
70
1
43
0.0
10
-192.68464670465625
20
63.210856861506755
42
0.41421356237309132
10
-193.38464670465626
20
63.910856861506751
10
-206.38464670465623
20
63.910856861506758
42
0.41421356237309132
10
-207.08464670465622
20
63.210856861506755
10
-207.08464670465622
20
50.210856861506763
42
0.41421356237311363
10
-206.38464670465626
20
49.51085686150676
10
-193.38464670465623
20
49.510856861506767
42
0.41421356237309132
10
-192.68464670465622
20
50.21085686150677
0
LWPOLYLINE
5
125
100
AcDbEntity
8
0
100
AcDbPolyline
90
8
70
1
43
0.0
10
-178.39714670465625
20
82.260856861506767
42
0.41421356237310253
10
-179.09714670465627
20
82.960856861506784
10
-192.09714670465621
20
82.96085686150677
42
0.41421356237310253
10
-192.79714670465623
20
82.260856861506767
10
-192.79714670465623
20
69.260856861506781
42
0.41421356237311363
10
-192.09714670465627
20
68.560856861506778
10
-179.09714670465621
20
68.560856861506792
42
0.41421356237309132
10
-178.39714670465622
20
69.260856861506781
0
LWPOLYLINE
5
126
100
AcDbEntity
8
0
100
AcDbPolyline
90
8
70
1
43
0.0
10
-154.58464670465619
20
63.210856861506706
42
0.41421356237309132
10
-155.28464670465615
20
63.910856861506701
10
-168.28464670465618
20
63.910856861506709
42
0.41421356237309132
10
-168.98464670465617
20
63.210856861506706
10
-168.98464670465617
20
50.210856861506706
42
0.41421356237309503
10
-168.28464670465618
20
49.510856861506703
10
-155.28464670465618
20
49.51085686150671
42
0.41421356237309132
10
-154.58464670465619
20
50.210856861506713
0
LWPOLYLINE
5
127
100
AcDbEntity
8
0
100
AcDbPolyline
90
8
70
1
43
0.0
10
-156.96589670465619
20
82.26085686150671
42
0.41421356237310253
10
-157.66589670465618
20
82.960856861506727
10
-170.66589670465618
20
82.960856861506699
42
0.4142135623730876
10
-171.36589670465614
20
82.26085686150671
10
-171.36589670465617
20
69.26085686150671
42
0.41421356237309132
10
-170.66589670465618
20
68.560856861506707
10
-157.66589670465618
20
68.560856861506721
42
0.41421356237309503
10
-156.96589670465619
20
69.260856861506724
0
LWPOLYLINE
5
128
100
AcDbEntity
8
0
100
AcDbPolyline
90
8
70
1
43
0.0
10
-192.68464670465622
20
44.160856861506652
42
0.41421356237309503
10
-193.38464670465623
20
44.860856861506655
10
-206.38464670465621
20
44.860856861506655
42
0.41421356237309503
10
-207.08464670465619
20
44.160856861506652
10
-207.08464670465619
20
31.160856861506655
42
0.41421356237310253
10
-206.38464670465623
20
30.460856861506649
10
-193.38464670465618
20
30.460856861506656
42
0.41421356237309132
10
-192.68464670465619
20
31.160856861506659
0
LWPOLYLINE
5
129
100
AcDbEntity
8
0
100
AcDbPolyline
90
8
70
1
43
0.0
10
-173.63464670465623
20
63.210856861506727
42
0.41421356237309132
10
-174.33464670465625
20
63.910856861506716
10
-187.33464670465622
20
63.910856861506716
42
0.41421356237309132
10
-188.03464670465621
20
63.210856861506727
10
-188.03464670465621
20
50.210856861506734
42
0.41421356237311363
10
-187.33464670465625
20
49.510856861506731
10
-174.33464670465622
20
49.510856861506738
42
0.41421356237309132
10
-173.63464670465621
20
50.210856861506734
0
LWPOLYLINE
5
130
100
AcDbEntity
8
0
100
AcDbPolyline
90
8
70
1
43
0.0
10
-249.83464670465628
20
44.160856861506694
42
0.41421356237309132
10
-250.5346467046563
20
44.86085686150669
10
-263.53464670465627
20
44.86085686150669
42
0.41421356237309132
10
-264.23464670465626
20
44.160856861506694
10
-264.23464670465626
20
31.160856861506705
42
0.41421356237311174
10
-263.53464670465632
20
30.460856861506702
10
-250.53464670465627
20
30.460856861506713
42
0.41421356237308948
10
-249.83464670465625
20
31.160856861506705
0
LWPOLYLINE
5
131
100
AcDbEntity
8
0
100
AcDbPolyline
90
8
70
1
43
0.0
10
-230.78464670465627
20
63.210856861506713
42
0.41421356237309503
10
-231.48464670465629
20
63.910856861506716
10
-244.48464670465626
20
63.910856861506716
42
0.41421356237309503
10
-245.18464670465625
20
63.210856861506713
10
-245.18464670465625
20
50.210856861506713
42
0.41421356237311363
10
-244.48464670465629
20
49.51085686150671
10
-231.48464670465626
20
49.510856861506724
42
0.41421356237309503
10
-230.78464670465624
20
50.210856861506727
0
LWPOLYLINE
5
132
100
AcDbEntity
8
0
100
AcDbPolyline
90
8
70
1
43
0.0
10
-211.73464670465626
20
44.160856861506659
42
0.41421356237309132
10
-212.43464670465627
20
44.860856861506655
10
-225.43464670465625
20
44.860856861506655
42
0.41421356237309132
10
-226.13464670465623
20
44.160856861506659
10
-226.13464670465623
20
31.160856861506669
42
0.41421356237311174
10
-225.43464670465627
20
30.460856861506667
10
-212.43464670465625
20
30.460856861506677
42
0.41421356237308948
10
-211.73464670465623
20
31.160856861506669
0
LWPOLYLINE
5
133
100
AcDbEntity
8
0
100
AcDbPolyline
90
8
70
1
43
0.0
10
-197.44714670465626
20
82.260856861506738
42
0.41421356237310253
10
-198.14714670465628
20
82.960856861506755
10
-211.14714670465622
20
82.960856861506727
42
0.41421356237309503
10
-211.84714670465621
20
82.260856861506738
10
-211.84714670465624
20
69.260856861506724
42
0.41421356237311363
10
-211.14714670465628
20
68.560856861506721
10
-198.14714670465622
20
68.560856861506736
42
0.41421356237309503
10
-197.44714670465623
20
69.260856861506738
0
LWPOLYLINE
5
134
100
AcDbEntity
8
0
100
AcDbPolyline
90
8
70
1
43
0.0
10
-235.54714670465626
20
82.26085686150671
42
0.41421356237309503
10
-236.24714670465625
20
82.960856861506727
10
-249.24714670465622
20
82.960856861506727
42
0.41421356237309503
10
-249.94714670465623
20
82.26085686150671
10
-249.94714670465623
20
69.260856861506724
42
0.41421356237310619
10
-249.24714670465625
20
68.560856861506721
10
-236.24714670465622
20
68.560856861506721
42
0.41421356237309875
10
-235.5471467046562
20
69.260856861506724
0
LWPOLYLINE
5
135
100
AcDbEntity
8
0
100
AcDbPolyline
90
8
70
1
43
0.0
10
-216.49714670465625
20
82.260856861506753
42
0.41421356237309503
10
-217.19714670465623
20
82.960856861506755
10
-230.19714670465621
20
82.960856861506755
42
0.41421356237309503
10
-230.89714670465622
20
82.260856861506753
10
-230.89714670465622
20
69.260856861506767
42
0.41421356237310619
10
-230.19714670465623
20
68.560856861506764
10
-217.19714670465621
20
68.560856861506778
42
0.41421356237309132
10
-216.49714670465619
20
69.260856861506781
0
LWPOLYLINE
5
136
100
AcDbEntity
8
0
100
AcDbPolyline
90
8
70
1
43
0.0
10
-254.59714670465627
20
82.260856861506824
42
0.41421356237309503
10
-255.29714670465626
20
82.960856861506826
10
-268.29714670465626
20
82.960856861506812
42
0.4142135623730876
10
-268.99714670465625
20
82.260856861506824
10
-268.99714670465625
20
69.260856861506824
42
0.41421356237310619
10
-268.29714670465626
20
68.560856861506821
10
-255.29714670465623
20
68.560856861506835
42
0.41421356237309132
10
-254.59714670465621
20
69.260856861506838
0
LWPOLYLINE
5
137
100
AcDbEntity
8
0
100
AcDbPolyline
90
8
70
1
43
0.0
10
-259.35964670465671
20
101.31085686150698
42
0.41421356237309503
10
-260.05964670465676
20
102.01085686150698
10
-273.0596467046567
20
102.01085686150698
42
0.41421356237309503
10
-273.75964670465669
20
101.31085686150699
10
-273.75964670465669
20
88.31085686150702
42
0.41421356237310253
10
-273.0596467046567
20
87.610856861507017
10
-260.05964670465676
20
87.610856861507045
42
0.41421356237310991
10
-259.35964670465677
20
88.310856861507006
0
LWPOLYLINE
5
138
100
AcDbEntity
8
0
100
AcDbPolyline
90
8
70
1
43
0.0
10
-240.3096467046567
20
101.31085686150699
42
0.41421356237310253
10
-241.00964670465672
20
102.01085686150702
10
-254.00964670465669
20
102.01085686150699
42
0.41421356237310253
10
-254.70964670465668
20
101.31085686150699
10
-254.70964670465668
20
88.31085686150702
42
0.41421356237310253
10
-254.00964670465669
20
87.610856861507017
10
-241.00964670465672
20
87.610856861507045
42
0.41421356237309503
10
-240.30964670465676
20
88.31085686150702
0
LWPOLYLINE
5
139
100
AcDbEntity
8
0
100
AcDbPolyline
90
8
70
1
43
0.0
10
-221.25964670465675
20
101.31085686150706
42
0.41421356237311735
10
-221.95964670465679
20
102.01085686150708
10
-234.95964670465671
20
102.01085686150707
42
0.4142135623730876
10
-235.65964670465672
20
101.31085686150709
10
-235.65964670465672
20
88.310856861507119
42
0.41421356237309503
10
-234.95964670465671
20
87.610856861507102
10
-221.95964670465673
20
87.610856861507131
42
0.4142135623730876
10
-221.25964670465675
20
88.310856861507119
0
ENDSEC
0
SECTION
2
OBJECTS
0
DICTIONARY
5
C
100
AcDbDictionary
3
ACAD_GROUP
350
D
3
ACAD_MLINESTYLE
350
17
0
DICTIONARY
5
D
100
AcDbDictionary
0
DICTIONARY
5
1A
330
C
100
AcDbDictionary
0
DICTIONARY
5
17
100
AcDbDictionary
0
ENDSEC
0
EOF
