0
SECTION
2
HEADER
9
$INSUNITS
70
4
9
$ACADVER
1
AC1014
9
$HANDSEED
5
FFFF
0
ENDSEC
0
SECTION
2
TABLES
0
TABLE
2
VPORT
5
8
100
AcDbSymbolTable
0
ENDTAB
0
TABLE
2
LTYPE
5
5
100
AcDbSymbolTable
0
LTYPE
5
14
100
AcDbSymbolTableRecord
100
AcDbLinetypeTableRecord
2
BYBLOCK
70
0
0
LTYPE
5
15
100
AcDbSymbolTableRecord
100
AcDbLinetypeTableRecord
2
BYLAYER
70
0
0
LTYPE
5
16
100
AcDbSymbolTableRecord
100
AcDbLinetypeTableRecord
2
DASHED
70
0
3
Dashed __ __ __ __ __ __ __ __ __ __ __ __ __ _
72
65
73
2
40
0.75
49
0.5
74
0
49
-0.25
74
0
0
ENDTAB
0
TABLE
2
LAYER
5
2
100
AcDbSymbolTable
70
2
0
LAYER
5
50
100
AcDbSymbolTableRecord
100
AcDbLayerTableRecord
2
0
70
0
62
7
6
CONTINUOUS
0
ENDTAB
0
TABLE
2
STYLE
5
3
100
AcDbSymbolTable
70
1
0
STYLE
5
11
100
AcDbSymbolTableRecord
100
AcDbTextStyleTableRecord
2
STANDARD
70
0
0
ENDTAB
0
TABLE
2
VIEW
5
6
100
AcDbSymbolTable
70
0
0
ENDTAB
0
TABLE
2
UCS
5
7
100
AcDbSymbolTable
70
0
0
ENDTAB
0
TABLE
2
APPID
5
9
100
AcDbSymbolTable
70
2
0
APPID
5
12
100
AcDbSymbolTableRecord
100
AcDbRegAppTableRecord
2
ACAD
70
0
0
ENDTAB
0
TABLE
2
DIMSTYLE
5
A
100
AcDbSymbolTable
70
1
0
ENDTAB
0
TABLE
2
BLOCK_RECORD
5
1
100
AcDbSymbolTable
70
1
0
BLOCK_RECORD
5
1F
100
AcDbSymbolTableRecord
100
AcDbBlockTableRecord
2
*MODEL_SPACE
0
BLOCK_RECORD
5
1B
100
AcDbSymbolTableRecord
100
AcDbBlockTableRecord
2
*PAPER_SPACE
0
ENDTAB
0
ENDSEC
0
SECTION
2
BLOCKS
0
BLOCK
5
20
100
AcDbEntity
100
AcDbBlockBegin
2
*MODEL_SPACE
0
ENDBLK
5
21
100
AcDbEntity
100
AcDbBlockEnd
0
BLOCK
5
1C
100
AcDbEntity
100
AcDbBlockBegin
2
*PAPER_SPACE
0
ENDBLK
5
1D
100
AcDbEntity
100
AcDbBlockEnd
0
ENDSEC
0
SECTION
2
ENTITIES
0
CIRCLE
5
100
100
AcDbEntity
8
0
100
AcDbCircle
10
-501.78676090741442
20
133.17367975782568
30
0
40
1.2500000000000711
210
0
220
-0
230
1
0
CIRCLE
5
101
100
AcDbEntity
8
0
100
AcDbCircle
10
-395.76043219063138
20
23.140788092575391
30
0
40
1.2499999999999687
210
0
220
-0
230
1
0
CIRCLE
5
102
100
AcDbEntity
8
0
100
AcDbCircle
10
-425.40444429294638
20
152.30006807213113
30
0
40
1.2499999999999687
210
0
220
-0
230
1
0
CIRCLE
5
103
100
AcDbEntity
8
0
100
AcDbCircle
10
-500.85929379017301
20
23.182041443417706
30
0
40
1.2499999999999687
210
0
220
-0
230
1
0
CIRCLE
5
104
100
AcDbEntity
8
0
100
AcDbCircle
10
-320.72533228224592
20
152.07283449719753
30
0
40
1.2499999999999687
210
0
220
-0
230
1
0
CIRCLE
5
105
100
AcDbEntity
8
0
100
AcDbCircle
10
-306.14129246810455
20
18.785607356588038
30
0
40
1.2500000000000044
210
0
220
-0
230
1
0
LWPOLYLINE
5
106
100
AcDbEntity
8
0
100
AcDbPolyline
90
14
70
1
43
0.0
10
-308.78825306878764
20
63.876829999999991
10
-308.78825306878764
20
83.42683000000001
10
-313.55075306878769
20
83.42683000000001
10
-313.55075306878769
20
102.47683000000002
10
-318.31325306878767
20
102.47683000000002
10
-318.31325306878767
20
154.22058000000004
10
-427.32575306878755
20
154.22058000000004
10
-427.32575306878755
20
135.17058000000003
10
-503.52575306878748
20
135.17058000000003
10
-503.52575306878748
20
21.39558000000001
10
-367.79450306878755
20
21.395580000000002
10
-367.79450306878755
20
16.63308
10
-304.02575306878771
20
16.63308
10
-304.02575306878771
20
63.876829999999991
0
LWPOLYLINE
5
107
100
AcDbEntity
8
0
100
AcDbPolyline
90
8
70
1
43
0.0
10
-337.04450306878778
20
82.40182999999989
42
0.4142135623730876
10
-337.74450306878776
20
83.101829999999879
10
-350.74450306878771
20
83.101829999999893
42
0.41421356237305046
10
-351.44450306878775
20
82.401829999999904
10
-351.44450306878775
20
69.401829999999933
42
0.4142135623730876
10
-350.74450306878771
20
68.701829999999958
10
-337.74450306878776
20
68.70182999999993
42
0.4142135623730579
10
-337.04450306878778
20
69.401829999999933
0
LWPOLYLINE
5
108
100
AcDbEntity
8
0
100
AcDbPolyline
90
8
70
1
43
0.0
10
-313.23200306878778
20
63.351829999999971
42
0.41421356237309132
10
-313.93200306878776
20
64.051829999999967
10
-326.93200306878771
20
64.051829999999967
42
0.41421356237313595
10
-327.63200306878775
20
63.351829999999978
10
-327.63200306878775
20
50.35183
42
0.41421356237313223
10
-326.93200306878771
20
49.651830000000032
10
-313.93200306878776
20
49.651829999999997
42
0.41421356237309875
10
-313.23200306878778
20
50.351829999999993
0
LWPOLYLINE
5
109
100
AcDbEntity
8
0
100
AcDbPolyline
90
8
70
1
43
0.0
10
-317.99450306878776
20
82.401829999999933
42
0.41421356237310253
10
-318.69450306878775
20
83.10182999999995
10
-331.69450306878775
20
83.101829999999936
42
0.41421356237305046
10
-332.39450306878774
20
82.401829999999947
10
-332.39450306878774
20
69.401829999999961
42
0.4142135623730876
10
-331.69450306878775
20
68.701829999999987
10
-318.69450306878775
20
68.701829999999958
42
0.41421356237309875
10
-317.99450306878776
20
69.401829999999947
0
LWPOLYLINE
5
110
100
AcDbEntity
8
0
100
AcDbPolyline
90
8
70
1
43
0.0
10
-332.28200306878773
20
63.351829999999943
42
0.41421356237313223
10
-332.98200306878778
20
64.051829999999896
10
-345.98200306878772
20
64.051829999999953
42
0.41421356237309503
10
-346.68200306878782
20
63.35182999999995
10
-346.68200306878771
20
50.351829999999971
42
0.41421356237313223
10
-345.98200306878772
20
49.651830000000004
10
-332.98200306878778
20
49.651829999999968
42
0.41421356237312851
10
-332.28200306878773
20
50.351829999999964
0
LWPOLYLINE
5
111
100
AcDbEntity
8
0
100
AcDbPolyline
90
8
70
1
43
0.0
10
-351.33200306878769
20
63.35182999999995
42
0.4142135623730876
10
-352.03200306878773
20
64.051829999999939
10
-365.03200306878767
20
64.051829999999953
42
0.41421356237305046
10
-365.73200306878766
20
63.351829999999964
10
-365.73200306878766
20
50.351829999999978
42
0.4142135623730876
10
-365.03200306878767
20
49.651830000000018
10
-352.03200306878773
20
49.651829999999975
42
0.41421356237309132
10
-351.33200306878769
20
50.351829999999971
0
LWPOLYLINE
5
112
100
AcDbEntity
8
0
100
AcDbPolyline
90
8
70
1
43
0.0
10
-370.38200306878764
20
63.351829999999964
42
0.41421356237313223
10
-371.08200306878763
20
64.05182999999991
10
-384.08200306878763
20
64.051829999999967
42
0.41421356237312851
10
-384.78200306878762
20
63.351829999999971
10
-384.78200306878762
20
50.351829999999993
42
0.41421356237313223
10
-384.08200306878763
20
49.651830000000025
10
-371.08200306878763
20
49.65182999999999
42
0.41421356237312851
10
-370.38200306878764
20
50.351829999999978
0
LWPOLYLINE
5
113
100
AcDbEntity
8
0
100
AcDbPolyline
90
8
70
1
43
0.0
10
-389.43200306878765
20
63.35182999999995
42
0.41421356237313223
10
-390.13200306878764
20
64.05182999999991
10
-403.13200306878764
20
64.051829999999953
42
0.41421356237312473
10
-403.83200306878769
20
63.351829999999964
10
-403.83200306878763
20
50.351829999999978
42
0.41421356237313223
10
-403.13200306878764
20
49.651830000000018
10
-390.13200306878764
20
49.651829999999975
42
0.41421356237313595
10
-389.43200306878765
20
50.351829999999971
0
LWPOLYLINE
5
114
100
AcDbEntity
8
0
100
AcDbPolyline
90
8
70
1
43
0.0
10
-408.48200306878755
20
63.35182999999995
42
0.41421356237313223
10
-409.18200306878754
20
64.05182999999991
10
-422.18200306878748
20
64.051829999999953
42
0.41421356237312473
10
-422.88200306878758
20
63.351829999999964
10
-422.88200306878753
20
50.351829999999978
42
0.41421356237313223
10
-422.18200306878748
20
49.651830000000018
10
-409.18200306878754
20
49.651829999999975
42
0.41421356237313595
10
-408.48200306878755
20
50.351829999999971
0
LWPOLYLINE
5
115
100
AcDbEntity
8
0
100
AcDbPolyline
90
8
70
1
43
0.0
10
-427.53200306878745
20
63.351829999999943
42
0.4142135623730876
10
-428.23200306878744
20
64.051829999999924
10
-441.23200306878744
20
64.051829999999939
42
0.41421356237309132
10
-441.93200306878742
20
63.351829999999943
10
-441.93200306878742
20
50.351829999999964
42
0.4142135623730876
10
-441.23200306878744
20
49.651829999999997
10
-428.23200306878744
20
49.651829999999968
42
0.41421356237305418
10
-427.53200306878745
20
50.351829999999964
0
LWPOLYLINE
5
116
100
AcDbEntity
8
0
100
AcDbPolyline
90
8
70
1
43
0.0
10
-453.7257530687873
20
63.351829999999929
42
0.41421356237313223
10
-454.42575306878729
20
64.051829999999882
10
-467.42575306878729
20
64.051829999999924
42
0.41421356237313595
10
-468.12575306878728
20
63.351829999999929
10
-468.12575306878728
20
50.351829999999978
42
0.41421356237313223
10
-467.42575306878729
20
49.651830000000018
10
-454.42575306878729
20
49.651829999999997
42
0.41421356237312851
10
-453.7257530687873
20
50.351829999999978
0
LWPOLYLINE
5
117
100
AcDbEntity
8
0
100
AcDbPolyline
90
8
70
1
43
0.0
10
-460.86950306878759
20
44.301829999999924
42
0.41421356237313223
10
-461.56950306878764
20
45.00182999999987
10
-474.56950306878758
20
45.00182999999992
42
0.41421356237312851
10
-475.26950306878757
20
44.301829999999924
10
-475.26950306878757
20
31.301829999999981
42
0.41421356237313034
10
-474.56950306878758
20
30.601830000000003
10
-461.56950306878764
20
30.601829999999978
42
0.41421356237312851
10
-460.86950306878759
20
31.301829999999981
0
LWPOLYLINE
5
118
100
AcDbEntity
8
0
100
AcDbPolyline
90
8
70
1
43
0.0
10
-408.48200306878778
20
44.301829999999981
42
0.41421356237313223
10
-409.18200306878782
20
45.001829999999927
10
-422.18200306878776
20
45.001829999999984
42
0.41421356237312851
10
-422.88200306878787
20
44.301829999999981
10
-422.88200306878775
20
31.301829999999995
42
0.41421356237313034
10
-422.18200306878776
20
30.601830000000021
10
-409.18200306878782
20
30.601829999999993
42
0.41421356237312851
10
-408.48200306878778
20
31.301829999999995
0
LWPOLYLINE
5
119
100
AcDbEntity
8
0
100
AcDbPolyline
90
8
70
1
43
0.0
10
-427.53200306878767
20
44.30182999999996
42
0.41421356237313223
10
-428.23200306878766
20
45.001829999999913
10
-441.23200306878766
20
45.001829999999963
42
0.41421356237313595
10
-441.93200306878765
20
44.301829999999967
10
-441.93200306878765
20
31.301829999999988
42
0.41421356237313034
10
-441.23200306878766
20
30.601830000000021
10
-428.23200306878766
20
30.601829999999985
42
0.41421356237312851
10
-427.53200306878767
20
31.301829999999988
0
LWPOLYLINE
5
120
100
AcDbEntity
8
0
100
AcDbPolyline
90
8
70
1
43
0.0
10
-389.43200306878788
20
44.301829999999988
42
0.4142135623730876
10
-390.13200306878787
20
45.00182999999997
10
-403.13200306878787
20
45.001829999999984
42
0.41421356237309132
10
-403.83200306878786
20
44.301829999999988
10
-403.83200306878786
20
31.301830000000006
42
0.41421356237308571
10
-403.13200306878787
20
30.601830000000039
10
-390.13200306878787
20
30.601830000000003
42
0.41421356237305418
10
-389.43200306878788
20
31.301830000000006
0
LWPOLYLINE
5
121
100
AcDbEntity
8
0
100
AcDbPolyline
90
8
70
1
43
0.0
10
-370.38200306878787
20
44.301829999999988
42
0.4142135623730876
10
-371.08200306878786
20
45.00182999999997
10
-384.0820030687878
20
45.001829999999991
42
0.41421356237305418
10
-384.78200306878784
20
44.301829999999995
10
-384.78200306878784
20
31.30183000000001
42
0.41421356237308393
10
-384.0820030687878
20
30.601830000000039
10
-371.08200306878786
20
30.601830000000007
42
0.4142135623730579
10
-370.38200306878787
20
31.301830000000017
0
LWPOLYLINE
5
122
100
AcDbEntity
8
0
100
AcDbPolyline
90
8
70
1
43
0.0
10
-351.33200306878791
20
44.301829999999981
42
0.41421356237313223
10
-352.0320030687879
20
45.001829999999927
10
-365.0320030687879
20
45.001829999999984
42
0.41421356237312851
10
-365.73200306878795
20
44.301829999999981
10
-365.73200306878789
20
31.301829999999995
42
0.41421356237313034
10
-365.0320030687879
20
30.601830000000021
10
-352.0320030687879
20
30.601829999999993
42
0.41421356237312662
10
-351.33200306878791
20
31.301829999999988
0
LWPOLYLINE
5
123
100
AcDbEntity
8
0
100
AcDbPolyline
90
8
70
1
43
0.0
10
-313.23200306878789
20
44.301829999999988
42
0.41421356237309503
10
-313.93200306878788
20
45.001829999999991
10
-326.93200306878788
20
45.001829999999991
42
0.41421356237312851
10
-327.63200306878787
20
44.301829999999995
10
-327.63200306878787
20
31.30183000000001
42
0.41421356237312851
10
-326.93200306878788
20
30.601830000000039
10
-313.93200306878788
20
30.601830000000007
42
0.41421356237308948
10
-313.23200306878789
20
31.301830000000006
0
LWPOLYLINE
5
124
100
AcDbEntity
8
0
100
AcDbPolyline
90
8
70
1
43
0.0
10
-332.2820030687879
20
44.301829999999988
42
0.41421356237313223
10
-332.98200306878789
20
45.001829999999934
10
-345.98200306878789
20
45.001829999999991
42
0.41421356237309503
10
-346.68200306878794
20
44.301829999999995
10
-346.68200306878788
20
31.301830000000006
42
0.41421356237313034
10
-345.98200306878789
20
30.601830000000039
10
-332.98200306878789
20
30.601830000000003
42
0.41421356237312851
10
-332.2820030687879
20
31.301830000000006
0
LWPOLYLINE
5
125
100
AcDbEntity
8
0
100
AcDbPolyline
90
8
70
1
43
0.0
10
-379.9070030687883
20
139.5518299999998
42
0.4142135623730876
10
-380.60700306878829
20
140.25182999999979
10
-393.60700306878823
20
140.25182999999981
42
0.4142135623730876
10
-394.30700306878828
20
139.5518299999998
10
-394.30700306878828
20
126.55182999999982
42
0.4142135623730876
10
-393.60700306878823
20
125.85182999999986
10
-380.60700306878829
20
125.85182999999984
42
0.4142135623730876
10
-379.9070030687883
20
126.55182999999982
0
LWPOLYLINE
5
126
100
AcDbEntity
8
0
100
AcDbPolyline
90
8
70
1
43
0.0
10
-360.85700306878829
20
139.55182999999971
42
0.4142135623730876
10
-361.55700306878828
20
140.2518299999997
10
-374.55700306878828
20
140.25182999999973
42
0.41421356237309503
10
-375.25700306878826
20
139.55182999999971
10
-375.25700306878826
20
126.55182999999974
42
0.4142135623730876
10
-374.55700306878828
20
125.85182999999978
10
-361.55700306878828
20
125.85182999999974
42
0.41421356237309503
10
-360.85700306878829
20
126.55182999999974
0
LWPOLYLINE
5
127
100
AcDbEntity
8
0
100
AcDbPolyline
90
8
70
1
43
0.0
10
-441.81950306878804
20
120.50182999999983
42
0.41421356237313223
10
-442.51950306878803
20
121.20182999999977
10
-455.51950306878803
20
121.20182999999983
42
0.41421356237313223
10
-456.21950306878801
20
120.50182999999983
10
-456.21950306878801
20
107.50182999999986
42
0.41421356237313223
10
-455.51950306878803
20
106.80182999999988
10
-442.51950306878803
20
106.80182999999987
42
0.41421356237312473
10
-441.81950306878804
20
107.50182999999986
0
LWPOLYLINE
5
128
100
AcDbEntity
8
0
100
AcDbPolyline
90
8
70
1
43
0.0
10
-398.95700306878837
20
139.5518299999998
42
0.41421356237313223
10
-399.65700306878836
20
140.25182999999976
10
-412.65700306878836
20
140.25182999999981
42
0.41421356237313223
10
-413.3570030687884
20
139.5518299999998
10
-413.35700306878834
20
126.55182999999982
42
0.41421356237313223
10
-412.65700306878836
20
125.85182999999986
10
-399.65700306878836
20
125.85182999999984
42
0.41421356237313223
10
-398.95700306878837
20
126.55182999999982
0
LWPOLYLINE
5
129
100
AcDbEntity
8
0
100
AcDbPolyline
90
8
70
1
43
0.0
10
-422.76950306878797
20
120.50182999999984
42
0.4142135623730876
10
-423.46950306878796
20
121.20182999999983
10
-436.46950306878796
20
121.20182999999984
42
0.41421356237305046
10
-437.16950306878795
20
120.50182999999987
10
-437.16950306878795
20
107.50182999999987
42
0.4142135623730876
10
-436.46950306878796
20
106.80182999999991
10
-423.46950306878796
20
106.80182999999987
42
0.41421356237305046
10
-422.76950306878797
20
107.50182999999986
0
LWPOLYLINE
5
130
100
AcDbEntity
8
0
100
AcDbPolyline
90
8
70
1
43
0.0
10
-398.95700306878848
20
101.45182999999989
42
0.41421356237313223
10
-399.65700306878853
20
102.15182999999983
10
-412.65700306878847
20
102.15182999999989
42
0.41421356237313223
10
-413.35700306878857
20
101.45182999999989
10
-413.35700306878846
20
88.451829999999916
42
0.41421356237313223
10
-412.65700306878847
20
87.751829999999956
10
-399.65700306878853
20
87.751829999999913
42
0.41421356237313223
10
-398.95700306878848
20
88.451829999999916
0
LWPOLYLINE
5
131
100
AcDbEntity
8
0
100
AcDbPolyline
90
8
70
1
43
0.0
10
-418.00700306878821
20
101.45182999999989
42
0.41421356237313223
10
-418.70700306878825
20
102.15182999999983
10
-431.7070030687882
20
102.15182999999989
42
0.41421356237313223
10
-432.4070030687883
20
101.45182999999989
10
-432.40700306878819
20
88.451829999999916
42
0.41421356237313223
10
-431.7070030687882
20
87.751829999999956
10
-418.70700306878825
20
87.751829999999913
42
0.41421356237313223
10
-418.00700306878821
20
88.451829999999916
0
LWPOLYLINE
5
132
100
AcDbEntity
8
0
100
AcDbPolyline
90
8
70
1
43
0.0
10
-437.05700306878828
20
101.45182999999987
42
0.41421356237313223
10
-437.75700306878826
20
102.15182999999982
10
-450.75700306878821
20
102.15182999999988
42
0.41421356237312473
10
-451.45700306878825
20
101.45182999999989
10
-451.45700306878825
20
88.451829999999902
42
0.41421356237313223
10
-450.75700306878821
20
87.751829999999927
10
-437.75700306878826
20
87.751829999999913
42
0.41421356237313223
10
-437.05700306878828
20
88.451829999999916
0
LWPOLYLINE
5
133
100
AcDbEntity
8
0
100
AcDbPolyline
90
8
70
1
43
0.0
10
-458.48825306878814
20
101.4518299999999
42
0.4142135623730876
10
-459.18825306878819
20
102.15182999999989
10
-472.18825306878813
20
102.1518299999999
42
0.41421356237305046
10
-472.88825306878812
20
101.45182999999992
10
-472.88825306878812
20
88.451829999999859
42
0.4142135623730876
10
-472.18825306878813
20
87.751829999999899
10
-459.18825306878819
20
87.75182999999987
42
0.4142135623730876
10
-458.48825306878814
20
88.451829999999887
0
LWPOLYLINE
5
134
100
AcDbEntity
8
0
100
AcDbPolyline
90
8
70
1
43
0.0
10
-458.48825306878814
20
82.401829999999848
42
0.4142135623730876
10
-459.18825306878819
20
83.101829999999822
10
-472.18825306878813
20
83.101829999999836
42
0.4142135623730876
10
-472.88825306878812
20
82.401829999999848
10
-472.88825306878812
20
69.401829999999791
42
0.4142135623730876
10
-472.18825306878813
20
68.701829999999831
10
-459.18825306878819
20
68.701829999999802
42
0.4142135623730579
10
-458.48825306878814
20
69.401829999999805
0
LWPOLYLINE
5
135
100
AcDbEntity
8
0
100
AcDbPolyline
90
8
70
1
43
0.0
10
-432.29450306878738
20
82.401829999999904
42
0.4142135623730876
10
-432.99450306878737
20
83.101829999999893
10
-445.99450306878737
20
83.101829999999921
42
0.4142135623730876
10
-446.69450306878736
20
82.401829999999904
10
-446.69450306878736
20
69.401829999999933
42
0.4142135623730876
10
-445.99450306878737
20
68.701829999999973
10
-432.99450306878737
20
68.70182999999993
42
0.4142135623730579
10
-432.29450306878738
20
69.401829999999933
0
LWPOLYLINE
5
136
100
AcDbEntity
8
0
100
AcDbPolyline
90
8
70
1
43
0.0
10
-413.24450306878748
20
82.401829999999904
42
0.41421356237313223
10
-413.94450306878747
20
83.101829999999865
10
-426.94450306878741
20
83.101829999999893
42
0.41421356237312473
10
-427.64450306878746
20
82.401829999999904
10
-427.64450306878746
20
69.401829999999933
42
0.41421356237313223
10
-426.94450306878741
20
68.701829999999958
10
-413.94450306878747
20
68.70182999999993
42
0.41421356237313223
10
-413.24450306878748
20
69.401829999999933
0
LWPOLYLINE
5
137
100
AcDbEntity
8
0
100
AcDbPolyline
90
8
70
1
43
0.0
10
-375.14450306878763
20
82.401829999999933
42
0.4142135623730876
10
-375.84450306878762
20
83.101829999999921
10
-388.84450306878762
20
83.101829999999936
42
0.41421356237305046
10
-389.54450306878761
20
82.401829999999947
10
-389.54450306878761
20
69.401829999999961
42
0.4142135623730876
10
-388.84450306878762
20
68.701829999999987
10
-375.84450306878762
20
68.701829999999958
42
0.41421356237309132
10
-375.14450306878763
20
69.401829999999947
0
LWPOLYLINE
5
138
100
AcDbEntity
8
0
100
AcDbPolyline
90
8
70
1
43
0.0
10
-394.19450306878764
20
82.401829999999904
42
0.4142135623730876
10
-394.89450306878769
20
83.101829999999893
10
-407.89450306878763
20
83.101829999999921
42
0.4142135623730876
10
-408.59450306878762
20
82.401829999999933
10
-408.59450306878762
20
69.401829999999947
42
0.4142135623730876
10
-407.89450306878763
20
68.701829999999987
10
-394.89450306878769
20
68.701829999999944
42
0.4142135623730579
10
-394.19450306878764
20
69.401829999999947
0
LWPOLYLINE
5
139
100
AcDbEntity
8
0
100
AcDbPolyline
90
8
70
1
43
0.0
10
-356.09450306878773
20
82.401829999999904
42
0.41421356237313223
10
-356.79450306878772
20
83.101829999999865
10
-369.79450306878766
20
83.101829999999921
42
0.41421356237313223
10
-370.49450306878776
20
82.401829999999904
10
-370.49450306878771
20
69.401829999999933
42
0.41421356237313223
10
-369.79450306878766
20
68.701829999999973
10
-356.79450306878772
20
68.701829999999944
42
0.41421356237313595
10
-356.09450306878773
20
69.401829999999933
0
LWPOLYLINE
5
140
100
AcDbEntity
8
0
100
AcDbPolyline
90
8
70
1
43
0.0
10
-403.71950306878836
20
120.50182999999984
42
0.4142135623730876
10
-404.41950306878834
20
121.20182999999983
10
-417.41950306878834
20
121.20182999999984
42
0.41421356237305046
10
-418.11950306878833
20
120.50182999999987
10
-418.11950306878833
20
107.50182999999987
42
0.4142135623730876
10
-417.41950306878834
20
106.80182999999991
10
-404.41950306878834
20
106.80182999999987
42
0.41421356237305046
10
-403.71950306878836
20
107.50182999999986
0
LWPOLYLINE
5
141
100
AcDbEntity
8
0
100
AcDbPolyline
90
8
70
1
43
0.0
10
-384.66950306878846
20
120.50182999999984
42
0.41421356237313223
10
-385.36950306878845
20
121.2018299999998
10
-398.36950306878839
20
121.20182999999984
42
0.41421356237312473
10
-399.06950306878849
20
120.50182999999987
10
-399.06950306878844
20
107.50182999999987
42
0.41421356237313223
10
-398.36950306878839
20
106.80182999999991
10
-385.36950306878845
20
106.80182999999987
42
0.41421356237312473
10
-384.66950306878846
20
107.50182999999986
0
LWPOLYLINE
5
142
100
AcDbEntity
8
0
100
AcDbPolyline
90
8
70
1
43
0.0
10
-365.61950306878839
20
120.50182999999979
42
0.41421356237313223
10
-366.31950306878844
20
121.20182999999975
10
-379.31950306878838
20
121.2018299999998
42
0.41421356237313223
10
-380.01950306878848
20
120.50182999999979
10
-380.01950306878837
20
107.50182999999981
42
0.41421356237313223
10
-379.31950306878838
20
106.80182999999985
10
-366.31950306878844
20
106.80182999999982
42
0.41421356237313223
10
-365.61950306878839
20
107.50182999999981
0
LWPOLYLINE
5
143
100
AcDbEntity
8
0
100
AcDbPolyline
90
8
70
1
43
0.0
10
-346.56950306878861
20
120.50182999999984
42
0.4142135623730876
10
-347.26950306878859
20
121.20182999999983
10
-360.26950306878859
20
121.20182999999984
42
0.41421356237309503
10
-360.96950306878858
20
120.50182999999984
10
-360.96950306878858
20
107.50182999999987
42
0.4142135623730876
10
-360.26950306878859
20
106.80182999999991
10
-347.26950306878859
20
106.80182999999987
42
0.41421356237309503
10
-346.56950306878861
20
107.50182999999987
0
LWPOLYLINE
5
144
100
AcDbEntity
8
0
100
AcDbPolyline
90
8
70
1
43
0.0
10
-360.85700306878857
20
101.45182999999986
42
0.4142135623730876
10
-361.55700306878856
20
102.15182999999983
10
-374.5570030687885
20
102.15182999999985
42
0.4142135623730876
10
-375.25700306878855
20
101.45182999999986
10
-375.25700306878855
20
88.451829999999887
42
0.4142135623730876
10
-374.5570030687885
20
87.751829999999913
10
-361.55700306878856
20
87.75182999999987
42
0.4142135623730876
10
-360.85700306878857
20
88.451829999999887
0
LWPOLYLINE
5
145
100
AcDbEntity
8
0
100
AcDbPolyline
90
8
70
1
43
0.0
10
-334.66325306878838
20
139.55182999999971
42
0.4142135623730876
10
-335.36325306878837
20
140.2518299999997
10
-348.36325306878837
20
140.25182999999973
42
0.41421356237309503
10
-349.06325306878836
20
139.55182999999971
10
-349.06325306878836
20
126.55182999999974
42
0.4142135623730876
10
-348.36325306878837
20
125.85182999999978
10
-335.36325306878837
20
125.85182999999974
42
0.41421356237309503
10
-334.66325306878838
20
126.55182999999974
0
LWPOLYLINE
5
146
100
AcDbEntity
8
0
100
AcDbPolyline
90
8
70
1
43
0.0
10
-327.51950306878859
20
120.50182999999984
42
0.4142135623730876
10
-328.21950306878864
20
121.20182999999983
10
-341.21950306878858
20
121.20182999999984
42
0.41421356237305046
10
-341.91950306878857
20
120.50182999999987
10
-341.91950306878857
20
107.50182999999987
42
0.4142135623730876
10
-341.21950306878858
20
106.80182999999991
10
-328.21950306878864
20
106.80182999999987
42
0.41421356237305046
10
-327.51950306878859
20
107.50182999999986
0
LWPOLYLINE
5
147
100
AcDbEntity
8
0
100
AcDbPolyline
90
8
70
1
43
0.0
10
-322.75700306878866
20
101.45182999999987
42
0.4142135623730876
10
-323.45700306878871
20
102.15182999999985
10
-336.45700306878865
20
102.15182999999988
42
0.41421356237305046
10
-337.15700306878864
20
101.45182999999989
10
-337.15700306878864
20
88.451829999999902
42
0.4142135623730876
10
-336.45700306878865
20
87.751829999999927
10
-323.45700306878871
20
87.751829999999899
42
0.41421356237305046
10
-322.75700306878866
20
88.451829999999887
0
LWPOLYLINE
5
148
100
AcDbEntity
8
0
100
AcDbPolyline
90
8
70
1
43
0.0
10
-341.80700306878867
20
101.45182999999987
42
0.4142135623730876
10
-342.50700306878866
20
102.15182999999985
10
-355.50700306878866
20
102.15182999999988
42
0.41421356237309503
10
-356.20700306878865
20
101.45182999999987
10
-356.20700306878865
20
88.451829999999902
42
0.4142135623730876
10
-355.50700306878866
20
87.751829999999927
10
-342.50700306878866
20
87.751829999999899
42
0.41421356237309503
10
-341.80700306878867
20
88.451829999999902
0
LWPOLYLINE
5
149
100
AcDbEntity
8
0
100
AcDbPolyline
90
8
70
1
43
0.0
10
-460.86950306878794
20
120.50182999999983
42
0.41421356237313223
10
-461.56950306878792
20
121.20182999999977
10
-474.56950306878787
20
121.20182999999983
42
0.41421356237313223
10
-475.26950306878791
20
120.50182999999983
10
-475.26950306878791
20
107.50182999999986
42
0.41421356237313223
10
-474.56950306878787
20
106.80182999999988
10
-461.56950306878792
20
106.80182999999987
42
0.41421356237312473
10
-460.86950306878794
20
107.50182999999986
0
LWPOLYLINE
5
150
100
AcDbEntity
8
0
100
AcDbPolyline
90
8
70
1
43
0.0
10
-379.90700306878853
20
101.45182999999989
42
0.41421356237313223
10
-380.60700306878852
20
102.15182999999983
10
-393.60700306878846
20
102.15182999999989
42
0.41421356237313223
10
-394.30700306878856
20
101.45182999999989
10
-394.3070030687885
20
88.451829999999916
42
0.41421356237313223
10
-393.60700306878846
20
87.751829999999956
10
-380.60700306878852
20
87.751829999999913
42
0.41421356237313223
10
-379.90700306878853
20
88.451829999999916
0
ENDSEC
0
SECTION
2
OBJECTS
0
DICTIONARY
5
C
100
AcDbDictionary
3
ACAD_GROUP
350
D
3
ACAD_MLINESTYLE
350
17
0
DICTIONARY
5
D
100
AcDbDictionary
0
DICTIONARY
5
1A
330
C
100
AcDbDictionary
0
DICTIONARY
5
17
100
AcDbDictionary
0
ENDSEC
0
EOF
